HIERARCHY
ROOT Root
{
  OFFSET 0.0 0.0 0.0
  CHANNELS 6 Xposition Yposition Zposition Zrotation Yrotation Xrotation
  JOINT Hips
  {
    OFFSET 0.0 100.0 0.0
    CHANNELS 6 Xposition Yposition Zposition Zrotation Yrotation Xrotation
    JOINT Spine1
    {
      OFFSET 5.003913 -0.037094 -0.013727
      CHANNELS 3 Zrotation Yrotation Xrotation
      JOINT Spine2
      {
        OFFSET 7.125363 -1e-06 0.0
        CHANNELS 3 Zrotation Yrotation Xrotation
        JOINT Chest
        {
          OFFSET 7.594027 1e-06 0.0
          CHANNELS 3 Zrotation Yrotation Xrotation
          JOINT Neck1
          {
            OFFSET 26.313086 -0.460272 -0.181672
            CHANNELS 3 Zrotation Yrotation Xrotation
            JOINT Neck2
            {
              OFFSET 8.045911 0.0 0.0
              CHANNELS 3 Zrotation Yrotation Xrotation
              JOINT Head
              {
                OFFSET 6.432774 0.0 0.0
                CHANNELS 3 Zrotation Yrotation Xrotation
                JOINT HeadEnd
                {
                  OFFSET 16.169773 0.06451 0.00362
                  CHANNELS 3 Zrotation Yrotation Xrotation
                }
                JOINT Jaw
                {
                  OFFSET 0.108741 3.12938 0.002639
                  CHANNELS 3 Zrotation Yrotation Xrotation
                }
                JOINT LeftEye
                {
                  OFFSET 4.45173 8.166359 3.206392
                  CHANNELS 3 Zrotation Yrotation Xrotation
                }
                JOINT RightEye
                {
                  OFFSET 4.436895 8.135758 -3.222429
                  CHANNELS 3 Zrotation Yrotation Xrotation
                }
              }
            }
          }
          JOINT LeftShoulder
          {
            OFFSET 23.218927 5.195579 1.621656
            CHANNELS 3 Zrotation Yrotation Xrotation
            JOINT LeftArm
            {
              OFFSET 15.902118 2e-06 -2e-06
              CHANNELS 3 Zrotation Yrotation Xrotation
              JOINT LeftForeArm
              {
                OFFSET 28.739307 0.0 -1e-06
                CHANNELS 3 Zrotation Yrotation Xrotation
                JOINT LeftHand
                {
                  OFFSET 27.093981 -4e-06 0.0
                  CHANNELS 3 Zrotation Yrotation Xrotation
                  JOINT LeftHandThumb1
                  {
                    OFFSET 2.276781 3.380274 0.83384
                    CHANNELS 3 Zrotation Yrotation Xrotation
                    JOINT LeftHandThumb2
                    {
                      OFFSET 4.705309 -1e-06 -1e-06
                      CHANNELS 3 Zrotation Yrotation Xrotation
                      JOINT LeftHandThumb3
                      {
                        OFFSET 2.798515 0.0 3e-06
                        CHANNELS 3 Zrotation Yrotation Xrotation
                        JOINT LeftHandThumbEnd
                        {
                          OFFSET 3.180793 4e-06 -4e-06
                          CHANNELS 3 Zrotation Yrotation Xrotation
                        }
                      }
                    }
                  }
                  JOINT LeftHandIndex1
                  {
                    OFFSET 3.247786 2.352677 0.137192
                    CHANNELS 3 Zrotation Yrotation Xrotation
                    JOINT LeftHandIndex2
                    {
                      OFFSET 6.367095 1e-06 0.0
                      CHANNELS 3 Zrotation Yrotation Xrotation
                      JOINT LeftHandIndex3
                      {
                        OFFSET 3.662364 0.0 0.0
                        CHANNELS 3 Zrotation Yrotation Xrotation
                        JOINT LeftHandIndex4
                        {
                          OFFSET 2.329242 4e-06 -4e-06
                          CHANNELS 3 Zrotation Yrotation Xrotation
                          JOINT LeftHandIndexEnd
                          {
                            OFFSET 2.767823 1e-06 0.0
                            CHANNELS 3 Zrotation Yrotation Xrotation
                          }
                        }
                      }
                    }
                  }
                  JOINT LeftHandMiddle1
                  {
                    OFFSET 3.163612 0.945023 -0.406112
                    CHANNELS 3 Zrotation Yrotation Xrotation
                    JOINT LeftHandMiddle2
                    {
                      OFFSET 6.276789 3e-06 0.0
                      CHANNELS 3 Zrotation Yrotation Xrotation
                      JOINT LeftHandMiddle3
                      {
                        OFFSET 4.35652 -1e-06 4e-06
                        CHANNELS 3 Zrotation Yrotation Xrotation
                        JOINT LeftHandMiddle4
                        {
                          OFFSET 2.996877 0.0 8e-06
                          CHANNELS 3 Zrotation Yrotation Xrotation
                          JOINT LeftHandMiddleEnd
                          {
                            OFFSET 2.323256 3e-06 -4e-06
                            CHANNELS 3 Zrotation Yrotation Xrotation
                          }
                        }
                      }
                    }
                  }
                  JOINT LeftHandRing1
                  {
                    OFFSET 2.882606 -0.309162 0.107445
                    CHANNELS 3 Zrotation Yrotation Xrotation
                    JOINT LeftHandRing2
                    {
                      OFFSET 6.033198 0.0 4e-06
                      CHANNELS 3 Zrotation Yrotation Xrotation
                      JOINT LeftHandRing3
                      {
                        OFFSET 4.350578 3e-06 0.0
                        CHANNELS 3 Zrotation Yrotation Xrotation
                        JOINT LeftHandRing4
                        {
                          OFFSET 2.651321 2e-06 -7e-06
                          CHANNELS 3 Zrotation Yrotation Xrotation
                          JOINT LeftHandRingEnd
                          {
                            OFFSET 1.937663 1e-06 -4e-06
                            CHANNELS 3 Zrotation Yrotation Xrotation
                          }
                        }
                      }
                    }
                  }
                  JOINT LeftHandPinky1
                  {
                    OFFSET 2.865315 -1.525436 0.575687
                    CHANNELS 3 Zrotation Yrotation Xrotation
                    JOINT LeftHandPinky2
                    {
                      OFFSET 5.54936 1e-06 -8e-06
                      CHANNELS 3 Zrotation Yrotation Xrotation
                      JOINT LeftHandPinky3
                      {
                        OFFSET 3.070974 0.0 -4e-06
                        CHANNELS 3 Zrotation Yrotation Xrotation
                        JOINT LeftHandPinky4
                        {
                          OFFSET 1.549672 1e-06 0.0
                          CHANNELS 3 Zrotation Yrotation Xrotation
                          JOINT LeftHandPinkyEnd
                          {
                            OFFSET 1.952123 0.0 0.0
                            CHANNELS 3 Zrotation Yrotation Xrotation
                          }
                        }
                      }
                    }
                  }
                }
              }
            }
          }
          JOINT RightShoulder
          {
            OFFSET 23.161716 5.296122 -1.380114
            CHANNELS 3 Zrotation Yrotation Xrotation
            JOINT RightArm
            {
              OFFSET -16.027195 -2e-06 1.1e-05
              CHANNELS 3 Zrotation Yrotation Xrotation
              JOINT RightForeArm
              {
                OFFSET -28.736639 4e-06 2e-06
                CHANNELS 3 Zrotation Yrotation Xrotation
                JOINT RightHand
                {
                  OFFSET -27.133619 6e-06 0.0
                  CHANNELS 3 Zrotation Yrotation Xrotation
                  JOINT RightHandThumb1
                  {
                    OFFSET -2.274328 -3.351035 -0.83067
                    CHANNELS 3 Zrotation Yrotation Xrotation
                    JOINT RightHandThumb2
                    {
                      OFFSET -4.703594 -3e-06 2e-06
                      CHANNELS 3 Zrotation Yrotation Xrotation
                      JOINT RightHandThumb3
                      {
                        OFFSET -2.794935 -4e-06 -3e-06
                        CHANNELS 3 Zrotation Yrotation Xrotation
                        JOINT RightHandThumbEnd
                        {
                          OFFSET -3.183852 4e-06 1e-06
                          CHANNELS 3 Zrotation Yrotation Xrotation
                        }
                      }
                    }
                  }
                  JOINT RightHandIndex1
                  {
                    OFFSET -3.253496 -2.33755 -0.127667
                    CHANNELS 3 Zrotation Yrotation Xrotation
                    JOINT RightHandIndex2
                    {
                      OFFSET -6.344434 0.0 0.0
                      CHANNELS 3 Zrotation Yrotation Xrotation
                      JOINT RightHandIndex3
                      {
                        OFFSET -3.654871 0.0 -8e-06
                        CHANNELS 3 Zrotation Yrotation Xrotation
                        JOINT RightHandIndex4
                        {
                          OFFSET -2.327586 -1e-06 0.0
                          CHANNELS 3 Zrotation Yrotation Xrotation
                          JOINT RightHandIndexEnd
                          {
                            OFFSET -2.770001 3e-06 8e-06
                            CHANNELS 3 Zrotation Yrotation Xrotation
                          }
                        }
                      }
                    }
                  }
                  JOINT RightHandMiddle1
                  {
                    OFFSET -3.168223 -0.944764 0.411762
                    CHANNELS 3 Zrotation Yrotation Xrotation
                    JOINT RightHandMiddle2
                    {
                      OFFSET -6.266691 -1e-06 -4e-06
                      CHANNELS 3 Zrotation Yrotation Xrotation
                      JOINT RightHandMiddle3
                      {
                        OFFSET -4.348901 0.0 0.0
                        CHANNELS 3 Zrotation Yrotation Xrotation
                        JOINT RightHandMiddle4
                        {
                          OFFSET -3.00024 2e-06 -4e-06
                          CHANNELS 3 Zrotation Yrotation Xrotation
                          JOINT RightHandMiddleEnd
                          {
                            OFFSET -2.321477 -4e-06 -4e-06
                            CHANNELS 3 Zrotation Yrotation Xrotation
                          }
                        }
                      }
                    }
                  }
                  JOINT RightHandRing1
                  {
                    OFFSET -2.885654 0.293261 -0.119232
                    CHANNELS 3 Zrotation Yrotation Xrotation
                    JOINT RightHandRing2
                    {
                      OFFSET -6.032835 -1e-06 -4e-06
                      CHANNELS 3 Zrotation Yrotation Xrotation
                      JOINT RightHandRing3
                      {
                        OFFSET -4.33881 0.0 -4e-06
                        CHANNELS 3 Zrotation Yrotation Xrotation
                        JOINT RightHandRing4
                        {
                          OFFSET -2.654903 -4e-06 -4e-06
                          CHANNELS 3 Zrotation Yrotation Xrotation
                          JOINT RightHandRingEnd
                          {
                            OFFSET -1.935122 0.0 4e-06
                            CHANNELS 3 Zrotation Yrotation Xrotation
                          }
                        }
                      }
                    }
                  }
                  JOINT RightHandPinky1
                  {
                    OFFSET -2.866241 1.503904 -0.60527
                    CHANNELS 3 Zrotation Yrotation Xrotation
                    JOINT RightHandPinky2
                    {
                      OFFSET -5.553177 -2e-06 0.0
                      CHANNELS 3 Zrotation Yrotation Xrotation
                      JOINT RightHandPinky3
                      {
                        OFFSET -3.062664 -1e-06 -4e-06
                        CHANNELS 3 Zrotation Yrotation Xrotation
                        JOINT RightHandPinky4
                        {
                          OFFSET -1.546529 2e-06 4e-06
                          CHANNELS 3 Zrotation Yrotation Xrotation
                          JOINT RightHandPinkyEnd
                          {
                            OFFSET -1.952341 0.0 -4e-06
                            CHANNELS 3 Zrotation Yrotation Xrotation
                          }
                        }
                      }
                    }
                  }
                }
              }
            }
          }
        }
      }
    }
    JOINT LeftLeg
    {
      OFFSET -8.443107 2.567604 10.043214
      CHANNELS 3 Zrotation Yrotation Xrotation
      JOINT LeftShin
      {
        OFFSET 43.229198 1e-06 -1e-06
        CHANNELS 3 Zrotation Yrotation Xrotation
        JOINT LeftFoot
        {
          OFFSET 42.298611 1e-06 1e-06
          CHANNELS 3 Zrotation Yrotation Xrotation
          JOINT LeftToeBase
          {
            OFFSET 14.165858 1e-06 0.0
            CHANNELS 3 Zrotation Yrotation Xrotation
            JOINT LeftToeEnd
            {
              OFFSET 6.7141 -0.234461 0.0
              CHANNELS 3 Zrotation Yrotation Xrotation
            }
          }
        }
      }
    }
    JOINT RightLeg
    {
      OFFSET -8.303923 2.592729 -10.047278
      CHANNELS 3 Zrotation Yrotation Xrotation
      JOINT RightShin
      {
        OFFSET -43.369682 0.0 1e-06
        CHANNELS 3 Zrotation Yrotation Xrotation
        JOINT RightFoot
        {
          OFFSET -42.260784 4e-06 2e-06
          CHANNELS 3 Zrotation Yrotation Xrotation
          JOINT RightToeBase
          {
            OFFSET -14.222245 -2e-06 -1e-06
            CHANNELS 3 Zrotation Yrotation Xrotation
            JOINT RightToeEnd
            {
              OFFSET -6.660062 0.232574 -2e-06
              CHANNELS 3 Zrotation Yrotation Xrotation
            }
          }
        }
      }
    }
  }
}
MOTION
Frames: 5
Frame Time: 0.03333333333333333
0.0 0.0 0.0 0.0 -0.0 0.0 -17.891426 97.83889 359.893005 95.012497 -1.924382 84.352699 -3.219802 -0.97603 0.479872 -12.424812 0.220024 3.242985 15.801545 -3.40509 0.780012 14.392349 -7.308621 2.839037 -2.749139 -0.754324 -1.997214 -31.275467 -3.439191 -2.413734 6e-06 -0.0 0.0 -0.035179 0.045027 -0.09576 -0.05992 -0.010962 -0.118067 -0.078212 0.080371 -0.077786 -113.383446 -63.339985 127.955742 12.885399 -21.998955 11.302789 53.70261 0.765476 -0.020856 2.729272 -9.316158 -28.688093 17.636631 -26.322741 52.411213 -19.466663 -14.395598 29.410395 -1e-06 -8.774822 -1e-06 15.59907 -17.871613 6.21552 -0.609778 -1.795655 -3.889328 -4.807088 -11.046809 -2.93785 3e-06 -20.976019 0.0 -5.019973 -25.033562 -4.031881 7e-06 -2e-06 -0.0 -10.634531 -5.68697 -3.565589 10.573272 -17.922953 -3.113899 2e-06 -13.82121 2e-06 -0.50178 -31.181507 -4.027013 -10.928905 -58.968487 7.08404 -13.982712 -7.150198 -2.875042 13.772732 -8.401491 -3.218241 0.347728 -34.211555 0.77166 -0.963031 -17.733372 2.621023 -1e-06 1e-06 -1e-06 -17.346422 -20.095217 -4.201782 21.757561 -1.638376 3.866428 3e-06 -6.338824 1e-06 -1.697594 -22.591743 -6.194005 -1e-06 -4e-06 -3e-06 59.144753 -79.063156 136.345581 25.760605 -25.505571 0.425836 47.454483 -0.209586 1.168047 7.088897 -6.330227 -29.725513 22.182117 -20.375904 49.933323 -16.701813 -16.74353 28.476532 -3e-06 -12.6906 -0.0 15.669545 -17.563646 3.194609 -0.10592 -1.513857 -4.275881 -5.039041 -5.612873 -2.953558 2e-06 -11.020525 1e-06 -6.111293 -15.895334 -3.84047 -2e-06 -1e-06 -1e-06 -10.283372 -5.680289 -4.341839 11.028293 -11.302406 -2.372631 -1.384268 -14.238581 -6.320121 -0.625439 -26.924187 -3.827599 -4.556865 -50.41967 -3.100411 -13.708524 -7.363476 -3.72094 18.141148 -14.05274 -3.242673 7e-06 -18.78727 1e-06 -0.429711 -8.456041 2.555502 2e-06 -1e-06 0.0 -15.923532 -20.094482 -5.473587 30.41921 -7.190826 1.735924 2e-06 -8.16293 -0.0 -1.861903 -22.861471 -6.167939 0.0 -3e-06 1e-06 161.473328 4.811305 -8.527792 5.835088 0.010691 0.050543 -59.331108 -1.847611 -2.557707 -6.505554 1.413203 2.095708 -0.999999 -0.0 -0.0 20.841232 -5.844643 -7.266026 15.593175 -0.128101 0.391467 -66.042213 4.882204 -1.192772 -24.838451 1.10879 1.519895 -1.000002 -0.0 -0.0 
0.0 0.0 0.0 0.0 -0.0 0.0 -17.582121 98.456459 363.300507 95.464149 -1.187934 84.166924 -3.115732 -1.082701 0.537668 -12.348351 0.189567 3.328197 15.699637 -3.68093 0.799065 15.046748 -7.924495 2.897377 -2.701609 -0.789174 -2.08855 -31.411312 -3.289691 -2.341076 6e-06 1e-06 -0.0 -0.031881 0.052375 -0.068583 -0.056495 0.020805 -0.084834 -0.080634 0.063372 -0.05791 -111.940605 -63.492973 126.664795 12.452022 -22.668377 11.663208 53.810196 0.731265 0.107528 2.330604 -8.721906 -29.156788 17.636621 -26.322721 52.411182 -19.466658 -14.395594 29.410381 0.0 -8.774821 -2e-06 15.605813 -17.941339 6.264009 -0.609775 -1.795653 -3.889327 -4.807089 -11.04681 -2.93785 2e-06 -20.976015 -1e-06 -5.019971 -25.033556 -4.031881 6e-06 -2e-06 0.0 -10.634529 -5.68697 -3.565587 10.573274 -17.922945 -3.113901 0.0 -13.821205 0.0 -0.501779 -31.181498 -4.027017 -11.028708 -59.049965 7.110809 -13.982712 -7.150198 -2.87504 13.77273 -8.401489 -3.218242 0.347732 -34.211544 0.771653 -0.96303 -17.733366 2.621016 -1e-06 2e-06 -1e-06 -17.34642 -20.095219 -4.20178 21.757557 -1.638373 3.866428 3e-06 -6.338823 -0.0 -1.69759 -22.591743 -6.194007 -1e-06 -3e-06 -3e-06 67.280472 -79.871132 128.284744 25.20647 -27.222126 2.474254 48.907845 0.002208 1.210396 7.428659 -6.41252 -29.279007 22.182114 -20.375898 49.933319 -16.701817 -16.743528 28.476534 -4e-06 -12.690601 -1e-06 15.695683 -17.72261 3.210671 -0.105919 -1.513858 -4.275883 -5.039039 -5.612872 -2.953557 3e-06 -11.020524 -3e-06 -6.111293 -15.895334 -3.840472 -1e-06 1e-06 1e-06 -10.283369 -5.680289 -4.341841 11.028296 -11.302406 -2.372634 -1.384268 -14.238579 -6.320122 -0.625433 -26.924191 -3.827604 -4.557224 -50.567169 -3.217472 -13.708522 -7.363477 -3.72094 18.14115 -14.052739 -3.242675 8e-06 -18.78727 -2e-06 -0.429711 -8.45604 2.555504 0.0 -1e-06 0.0 -15.923531 -20.094482 -5.473587 30.41921 -7.190826 1.735924 2e-06 -8.162927 -1e-06 -1.861902 -22.861467 -6.167941 3e-06 -4e-06 -1e-06 164.338379 5.800405 -8.085773 6.1086 0.045451 0.078016 -61.704079 -2.202286 -1.967593 -6.389662 1.395436 2.084361 -0.999998 0.0 -0.0 19.057896 -7.596901 -8.07701 22.641964 -0.292832 0.607718 -61.622097 6.574389 -1.062205 -28.453207 1.169089 1.50342 -1.000003 -0.0 0.0 
0.0 0.0 0.0 0.0 -0.0 0.0 -17.155521 98.918762 366.678772 95.803688 -0.358982 84.013283 -2.931218 -1.144092 0.575968 -12.212887 0.163941 3.301119 15.743105 -3.815388 0.729777 15.522334 -8.448863 2.986654 -2.665061 -0.822401 -2.081047 -31.652788 -3.235017 -2.310465 6e-06 -0.0 -0.0 -0.025249 0.069094 -0.029461 -0.049339 0.045976 -0.042245 -0.068059 0.07064 -0.024676 -111.325829 -63.530972 126.242813 12.023048 -22.760498 11.794043 54.212185 0.704565 0.268933 1.923258 -7.970768 -29.441954 17.636627 -26.322744 52.411213 -19.466658 -14.395596 29.410393 0.0 -8.774822 -1e-06 15.588975 -18.024837 6.306889 -0.609776 -1.795653 -3.889328 -4.80709 -11.046812 -2.93785 2e-06 -20.976021 0.0 -5.019974 -25.03356 -4.031879 6e-06 -2e-06 -0.0 -10.634533 -5.686968 -3.565587 10.573271 -17.922953 -3.113899 0.0 -13.821211 3e-06 -0.501782 -31.181507 -4.027012 -11.195515 -59.094776 7.105437 -13.982716 -7.150199 -2.875042 13.772729 -8.401491 -3.218241 0.347729 -34.211559 0.771658 -0.963035 -17.73337 2.62102 -2e-06 1e-06 -0.0 -17.346422 -20.095221 -4.20178 21.757555 -1.638374 3.866428 -0.0 -6.338824 1e-06 -1.697593 -22.591749 -6.194005 -0.0 -3e-06 -2e-06 74.381783 -80.334129 121.220673 24.679411 -27.955078 3.903716 50.494305 0.153414 1.258291 7.842099 -6.147589 -29.024115 22.182116 -20.3759 49.933327 -16.701815 -16.743528 28.476534 -5e-06 -12.6906 -3e-06 15.666331 -17.804152 3.255979 -0.105917 -1.513855 -4.275883 -5.039042 -5.612872 -2.953557 2e-06 -11.020524 -0.0 -6.111295 -15.895334 -3.840472 -1e-06 0.0 1e-06 -10.283369 -5.680287 -4.341837 11.028294 -11.302406 -2.372632 -1.384268 -14.23858 -6.32012 -0.625437 -26.924192 -3.827598 -4.542011 -50.647552 -3.317226 -13.708524 -7.363476 -3.72094 18.141148 -14.052742 -3.242674 7e-06 -18.78727 -1e-06 -0.429713 -8.456042 2.555503 1e-06 -1e-06 1e-06 -15.923536 -20.094482 -5.473588 30.41921 -7.190831 1.735927 4e-06 -8.16293 1e-06 -1.861902 -22.861467 -6.167942 -0.0 -3e-06 -0.0 167.16153 6.71527 -7.668947 6.554009 0.061194 0.126044 -64.095917 -2.470344 -1.579162 -6.309276 1.43305 2.077312 -0.999999 -0.0 -0.0 16.378407 -9.625312 -8.694758 31.087429 -0.488108 0.789351 -57.023354 8.580129 -0.868812 -30.391941 1.159657 1.498729 -1.000005 0.0 0.0 
0.0 0.0 0.0 0.0 -0.0 0.0 -16.667843 99.141151 369.871155 96.285782 0.545604 84.131386 -2.647185 -1.379974 0.560547 -12.006806 0.10135 3.157952 15.902793 -3.912965 0.538488 15.851385 -8.684193 3.056888 -2.662585 -0.83856 -2.161133 -32.012379 -3.273516 -2.222597 7e-06 -1e-06 0.0 -0.011265 0.078495 -0.002963 -0.053824 0.056928 -0.016853 -0.066863 0.07733 0.001173 -111.336449 -63.637447 126.482018 11.715867 -22.211414 12.023027 55.080963 0.681355 0.380232 1.802021 -7.409336 -29.521242 17.636629 -26.322729 52.411182 -19.466656 -14.395598 29.410385 -0.0 -8.774821 -3e-06 15.585196 -18.067688 6.279758 -0.609776 -1.795653 -3.889327 -4.807086 -11.046808 -2.93785 4e-06 -20.976015 -0.0 -5.019972 -25.033552 -4.031878 7e-06 -1e-06 -0.0 -10.634537 -5.68697 -3.565587 10.573277 -17.922947 -3.113899 3e-06 -13.821206 2e-06 -0.50178 -31.181501 -4.027012 -11.296897 -59.038734 7.058305 -13.982714 -7.150195 -2.875041 13.772731 -8.40149 -3.218242 0.347735 -34.211544 0.771654 -0.963028 -17.733366 2.621018 -2e-06 2e-06 -1e-06 -17.346416 -20.095213 -4.20178 21.757557 -1.638375 3.866426 1e-06 -6.338822 2e-06 -1.697588 -22.591738 -6.194004 -2e-06 -3e-06 -2e-06 77.429794 -80.226723 118.178528 24.387369 -27.58345 4.50565 51.940884 0.263962 1.115811 8.12895 -5.803737 -28.8876 22.182114 -20.375891 49.933323 -16.701817 -16.74353 28.476532 -4e-06 -12.690599 -2e-06 15.589987 -17.830767 3.308796 -0.105921 -1.513858 -4.275882 -5.039039 -5.612872 -2.953558 0.0 -11.020523 -2e-06 -6.111294 -15.89533 -3.840471 0.0 1e-06 -1e-06 -10.283371 -5.68029 -4.34184 11.028296 -11.302406 -2.372633 -1.384268 -14.238581 -6.320124 -0.625435 -26.924187 -3.827605 -4.52371 -50.628113 -3.344716 -13.708524 -7.363478 -3.720942 18.141146 -14.052739 -3.242674 8e-06 -18.78727 -4e-06 -0.429713 -8.456047 2.555506 1e-06 -0.0 -0.0 -15.923538 -20.094486 -5.473587 30.419218 -7.190825 1.735927 3e-06 -8.162929 -1e-06 -1.8619 -22.861467 -6.167947 0.0 -3e-06 -1e-06 169.925125 7.899959 -7.30347 7.08116 0.042796 0.179961 -66.60025 -2.603891 -1.178325 -6.271804 1.492279 2.071532 -0.999999 0.0 -0.0 13.152692 -12.00088 -9.171935 40.119373 -0.64612 0.870615 -52.199997 10.205837 -0.844326 -29.178968 1.061753 1.498826 -1.000003 0.0 -0.0 
0.0 0.0 0.0 0.0 -0.0 0.0 -16.208448 99.105003 372.823639 97.005241 1.540096 84.550049 -2.203519 -1.848468 0.486178 -11.735011 -0.010591 2.949666 16.10104 -4.030492 0.204818 16.197767 -8.60373 3.089923 -2.673841 -0.826084 -2.439135 -32.597923 -3.370999 -2.079088 6e-06 -1e-06 0.0 0.011039 0.08267 0.011427 -0.055643 0.061736 -0.005507 -0.064232 0.079866 0.019004 -111.589706 -63.961266 126.982292 11.642866 -21.172808 12.621609 56.221893 0.710135 0.463997 2.144218 -7.239486 -29.610294 17.636629 -26.322737 52.411194 -19.466661 -14.395602 29.410393 -0.0 -8.774822 -2e-06 15.527205 -18.056353 6.22411 -0.609779 -1.795654 -3.889328 -4.807086 -11.046809 -2.937849 6e-06 -20.976015 -1e-06 -5.01997 -25.033556 -4.031878 6e-06 0.0 -2e-06 -10.634533 -5.686971 -3.565587 10.573275 -17.922947 -3.113899 3e-06 -13.821206 0.0 -0.501781 -31.181505 -4.027012 -11.30561 -58.933865 7.024215 -13.982714 -7.150198 -2.875041 13.772731 -8.401491 -3.218242 0.347732 -34.211552 0.771657 -0.963031 -17.73337 2.621019 -1e-06 1e-06 -2e-06 -17.346416 -20.095217 -4.201782 21.757559 -1.638375 3.866427 1e-06 -6.338823 1e-06 -1.69759 -22.591742 -6.194005 -0.0 -3e-06 -2e-06 75.922287 -79.585289 119.802711 24.512583 -26.304535 4.36214 52.875164 0.479685 0.856223 8.314788 -5.606307 -28.947971 22.182106 -20.375898 49.933315 -16.701805 -16.74353 28.476522 -2e-06 -12.690599 -2e-06 15.454077 -17.816736 3.369028 -0.105922 -1.513858 -4.275882 -5.03904 -5.612869 -2.953556 1e-06 -11.020524 -2e-06 -6.1113 -15.895332 -3.840468 0.0 1e-06 0.0 -10.283373 -5.680289 -4.341836 11.028288 -11.302404 -2.372631 -1.384269 -14.238577 -6.320119 -0.625438 -26.924187 -3.827599 -4.572561 -50.442158 -3.267714 -13.708523 -7.363478 -3.720939 18.141142 -14.052737 -3.242671 6e-06 -18.787266 -4e-06 -0.429714 -8.456047 2.555504 1e-06 -0.0 -1e-06 -15.923538 -20.094484 -5.473582 30.41921 -7.190821 1.735926 2e-06 -8.162929 -0.0 -1.861903 -22.861467 -6.167943 1e-06 -2e-06 -1e-06 172.43071 9.356922 -6.979789 7.975771 -0.004143 0.180862 -69.246452 -2.557485 -0.580905 -6.346499 1.53982 2.069915 -0.999999 -0.0 0.0 9.364273 -14.799176 -9.429197 49.472843 -0.720158 0.848159 -46.651852 11.470345 -1.378221 -22.307747 0.873501 1.471202 -1.000002 0.0 -0.0 
